<?xml version="1.0" standalone="no"?>
<!DOCTYPE svg PUBLIC "-//W3C//DTD SVG 20010904//EN"
 "http://www.w3.org/TR/2001/REC-SVG-20010904/DTD/svg10.dtd">
<svg version="1.0" xmlns="http://www.w3.org/2000/svg"
 width="278.000000pt" height="232.000000pt" viewBox="0 0 278.000000 232.000000"
 preserveAspectRatio="xMidYMid meet">

<g transform="translate(0.000000,232.000000) scale(0.100000,-0.100000)"
fill="#000000" stroke="none">
<path d="M0 1160 l0 -1160 1390 0 1390 0 0 1160 0 1160 -1390 0 -1390 0 0
-1160z m190 1060 c143 -21 390 -32 575 -26 105 3 201 8 215 10 14 3 54 7 90
11 36 3 85 10 109 16 24 5 46 7 50 3 3 -3 5 -60 3 -127 -1 -67 2 -146 7 -176
11 -69 4 -76 -78 -84 -139 -15 -154 -42 -148 -255 3 -85 7 -155 9 -158 2 -2
44 -8 93 -14 184 -21 621 -8 649 20 4 4 10 73 13 152 5 131 4 148 -15 191 -12
28 -27 47 -37 47 -9 0 -14 3 -12 8 3 4 -29 8 -70 10 -96 4 -106 13 -93 83 12
63 12 158 0 219 -5 27 -5 46 1 48 5 2 9 13 9 24 0 16 5 19 23 15 94 -24 367
-47 550 -47 142 0 380 17 491 35 45 7 82 11 84 10 2 -1 -2 -48 -7 -103 -10
-90 -1 -248 14 -272 3 -4 -28 -10 -67 -14 -94 -9 -149 -34 -179 -82 -19 -32
-24 -55 -27 -134 -5 -106 11 -303 29 -364 6 -22 24 -52 40 -67 23 -22 27 -29
16 -36 -47 -28 -75 -144 -84 -354 l-6 -149 46 0 47 0 -6 -84 -7 -83 34 -12
c19 -7 62 -15 97 -18 l63 -6 -8 -76 c-10 -95 -10 -135 0 -237 l7 -81 -52 8
c-247 37 -800 37 -1046 0 l-54 -8 6 26 c3 14 9 75 12 135 7 107 7 109 -14 104
-19 -5 -20 -3 -14 31 9 48 9 206 0 257 l-8 41 63 5 c136 12 169 51 175 209 l5
107 -44 7 c-92 13 -218 22 -319 24 -100 2 -323 -13 -384 -25 l-28 -6 4 -102
c2 -79 8 -109 24 -136 25 -44 82 -72 156 -78 l57 -4 -7 -32 c-9 -40 -9 -232 0
-272 6 -29 5 -31 -14 -26 -21 5 -21 4 -14 -104 3 -60 9 -121 12 -135 l6 -26
-54 8 c-241 37 -809 37 -1045 0 l-53 -8 7 86 c9 107 9 127 0 227 l-8 81 68 6
c37 3 80 10 95 16 25 9 28 16 28 53 -1 24 -5 62 -9 85 l-8 43 50 0 50 0 -6
144 c-10 216 -37 331 -84 359 -11 7 -7 14 16 36 16 15 35 47 41 72 16 58 29
210 29 329 0 182 -42 233 -203 246 l-73 7 9 41 c12 51 14 200 3 284 -7 62 -7
63 16 58 13 -3 53 -10 89 -16z"/>
</g>
</svg>
