<?xml version="1.0" standalone="no"?>
<!DOCTYPE svg PUBLIC "-//W3C//DTD SVG 20010904//EN"
 "http://www.w3.org/TR/2001/REC-SVG-20010904/DTD/svg10.dtd">
<svg version="1.0" xmlns="http://www.w3.org/2000/svg"
 width="360.000000pt" height="296.000000pt" viewBox="0 0 360.000000 296.000000"
 preserveAspectRatio="xMidYMid meet">
<metadata>
Created by potrace 1.16, written by Peter Selinger 2001-2019
</metadata>
<g transform="translate(0.000000,296.000000) scale(0.100000,-0.100000)"
fill="#000000" stroke="none">
<path d="M1678 2811 c-97 -7 -116 -18 -151 -86 -51 -100 -166 -422 -192 -537
-19 -87 -14 -124 31 -247 13 -35 24 -67 24 -72 0 -12 -74 -58 -119 -74 -20 -8
-30 -14 -23 -14 9 -1 8 -7 -4 -26 -10 -16 -35 -30 -67 -40 -28 -8 -59 -23 -70
-32 -11 -10 -17 -13 -14 -6 4 6 1 13 -5 16 -7 2 14 18 47 35 33 17 56 31 51
32 -4 0 -38 -16 -76 -35 -76 -41 -173 -123 -196 -167 -42 -81 -154 -524 -184
-728 -7 -41 -18 -97 -25 -125 -19 -69 -29 -435 -15 -500 13 -59 13 -62 4 -142
l-7 -63 1097 0 c604 0 1096 3 1094 8 -36 68 -37 79 -27 172 6 51 7 99 4 109
-9 23 -26 187 -25 239 0 24 5 55 10 68 21 54 11 161 -24 272 -19 59 -55 175
-81 257 -146 467 -146 466 -199 517 -27 27 -54 48 -60 48 -6 0 -3 -5 6 -11 10
-5 22 -18 28 -29 9 -16 7 -18 -18 -15 -34 4 -115 36 -108 42 2 3 30 -5 61 -16
31 -12 54 -17 51 -12 -3 5 -51 23 -106 41 -72 23 -98 36 -91 44 7 8 0 11 -22
12 -50 2 -101 14 -114 27 -7 8 -8 20 -2 35 7 20 12 21 30 12 11 -7 23 -9 26
-7 2 3 -5 8 -16 12 -30 9 -26 34 14 105 19 34 39 76 43 93 14 56 -11 154 -72
276 -31 63 -56 124 -56 135 0 78 -72 251 -128 309 -74 77 -103 83 -324 68z
m-21 -904 c20 -18 48 -15 56 6 2 7 3 -1 1 -16 -2 -17 0 -26 6 -22 6 3 10 17
10 31 0 13 5 24 11 24 6 0 8 -9 5 -20 -3 -11 -8 -28 -11 -37 -2 -10 0 -25 5
-33 9 -13 10 -13 10 0 0 13 1 13 10 0 7 -11 10 -12 10 -2 0 8 9 12 23 10 28
-4 36 -44 10 -51 -67 -19 -79 -18 -124 14 -57 42 -59 45 -58 104 0 36 3 44 8
30 5 -11 18 -28 28 -38z"/>
</g>
</svg>
